<svg xmlns="http://www.w3.org/2000/svg" width="750" height="142"><path d="M82,-70L161,-63L276,-69Z" fill="#ba594d" stroke="#ba594d" stroke-width="1.51"/><path d="M221,200L34,203L332,203Z" fill="#9a7c8f" stroke="#9a7c8f" stroke-width="1.51"/><path d="M332,203L34,203L467,208Z" fill="#9690a8" stroke="#9690a8" stroke-width="1.51"/><path d="M381,-54L425,-51L519,-52Z" fill="#cf8987" stroke="#cf8987" stroke-width="1.51"/><path d="M276,-69L381,-54L519,-52Z" fill="#cf8a87" stroke="#cf8a87" stroke-width="1.51"/><path d="M276,-69L519,-52L671,-66Z" fill="#b87e82" stroke="#b87e82" stroke-width="1.51"/><path d="M635,183L522,199L734,209Z" fill="#417eb3" stroke="#417eb3" stroke-width="1.51"/><path d="M522,199L467,208L734,209Z" fill="#5683b0" stroke="#5683b0" stroke-width="1.51"/><path d="M276,-69L671,-66L784,-66Z" fill="#996e79" stroke="#996e79" stroke-width="1.51"/><path d="M671,-66L710,-52L784,-66Z" fill="#7f4d6a" stroke="#7f4d6a" stroke-width="1.51"/><path d="M760,193L734,209L823,202Z" fill="#1a5797" stroke="#1a5797" stroke-width="1.51"/><path d="M808,132L782,146L823,202Z" fill="#2f6ea4" stroke="#2f6ea4" stroke-width="1.51"/><path d="M815,-42L815,-6L827,36Z" fill="#8d6172" stroke="#8d6172" stroke-width="1.51"/><path d="M827,36L770,52L832,84Z" fill="#9093b0" stroke="#9093b0" stroke-width="1.51"/><path d="M770,52L783,93L832,84Z" fill="#8c9cc0" stroke="#8c9cc0" stroke-width="1.51"/><path d="M783,93L808,132L832,84Z" fill="#7791b7" stroke="#7791b7" stroke-width="1.51"/><path d="M808,132L823,202L832,84Z" fill="#4b79a6" stroke="#4b79a6" stroke-width="1.51"/><path d="M782,146L760,193L823,202Z" fill="#2464a2" stroke="#2464a2" stroke-width="1.51"/><path d="M815,-6L780,-6L827,36Z" fill="#947081" stroke="#947081" stroke-width="1.51"/><path d="M780,-6L770,52L827,36Z" fill="#98869c" stroke="#98869c" stroke-width="1.51"/><path d="M519,-52L576,-46L671,-66Z" fill="#a7717b" stroke="#a7717b" stroke-width="1.51"/><path d="M784,-66L780,-6L815,-42Z" fill="#864962" stroke="#864962" stroke-width="1.51"/><path d="M815,-42L780,-6L815,-6Z" fill="#8d576c" stroke="#8d576c" stroke-width="1.51"/><path d="M783,93L782,146L808,132Z" fill="#648cb8" stroke="#648cb8" stroke-width="1.51"/><path d="M713,6L770,52L780,-6Z" fill="#a28aa0" stroke="#a28aa0" stroke-width="1.51"/><path d="M710,-52L713,6L780,-6Z" fill="#9d6c81" stroke="#9d6c81" stroke-width="1.51"/><path d="M726,157L760,193L782,146Z" fill="#3278b6" stroke="#3278b6" stroke-width="1.51"/><path d="M735,98L726,157L782,146Z" fill="#5f93c5" stroke="#5f93c5" stroke-width="1.51"/><path d="M735,98L782,146L783,93Z" fill="#7599c5" stroke="#7599c5" stroke-width="1.51"/><path d="M770,52L735,98L783,93Z" fill="#90a6ce" stroke="#90a6ce" stroke-width="1.51"/><path d="M710,-52L780,-6L784,-66Z" fill="#8e506e" stroke="#8e506e" stroke-width="1.51"/><path d="M713,6L718,49L770,52Z" fill="#a39fb7" stroke="#a39fb7" stroke-width="1.51"/><path d="M425,-51L480,-48L519,-52Z" fill="#cd8786" stroke="#cd8786" stroke-width="1.51"/><path d="M685,184L635,183L734,209Z" fill="#2f75b3" stroke="#2f75b3" stroke-width="1.51"/><path d="M718,49L735,98L770,52Z" fill="#9badcf" stroke="#9badcf" stroke-width="1.51"/><path d="M726,157L734,209L760,193Z" fill="#286db0" stroke="#286db0" stroke-width="1.51"/><path d="M572,180L522,199L635,183Z" fill="#5e94c5" stroke="#5e94c5" stroke-width="1.51"/><path d="M680,61L682,99L718,49Z" fill="#a1bbd8" stroke="#a1bbd8" stroke-width="1.51"/><path d="M682,99L680,158L726,157Z" fill="#609dc9" stroke="#609dc9" stroke-width="1.51"/><path d="M726,157L685,184L734,209Z" fill="#2f75b4" stroke="#2f75b4" stroke-width="1.51"/><path d="M682,99L726,157L735,98Z" fill="#76a5ce" stroke="#76a5ce" stroke-width="1.51"/><path d="M718,49L682,99L735,98Z" fill="#97b3d6" stroke="#97b3d6" stroke-width="1.51"/><path d="M710,-52L678,7L713,6Z" fill="#a37988" stroke="#a37988" stroke-width="1.51"/><path d="M680,158L685,184L726,157Z" fill="#3b86bd" stroke="#3b86bd" stroke-width="1.51"/><path d="M713,6L678,7L718,49Z" fill="#a999aa" stroke="#a999aa" stroke-width="1.51"/><path d="M678,7L680,61L718,49Z" fill="#a9acbf" stroke="#a9acbf" stroke-width="1.51"/><path d="M671,-66L678,7L710,-52Z" fill="#9b6679" stroke="#9b6679" stroke-width="1.51"/><path d="M74,197L34,203L221,200Z" fill="#946278" stroke="#946278" stroke-width="1.51"/><path d="M576,-46L638,-47L671,-66Z" fill="#9e6876" stroke="#9e6876" stroke-width="1.51"/><path d="M671,-66L638,-47L678,7Z" fill="#9f6e7c" stroke="#9f6e7c" stroke-width="1.51"/><path d="M638,-47L621,4L678,7Z" fill="#ad8890" stroke="#ad8890" stroke-width="1.51"/><path d="M678,7L617,32L680,61Z" fill="#aeb0bd" stroke="#aeb0bd" stroke-width="1.51"/><path d="M680,61L625,93L682,99Z" fill="#9bbfdb" stroke="#9bbfdb" stroke-width="1.51"/><path d="M635,160L680,158L682,99Z" fill="#62a3cd" stroke="#62a3cd" stroke-width="1.51"/><path d="M625,93L635,160L682,99Z" fill="#83b6d7" stroke="#83b6d7" stroke-width="1.51"/><path d="M680,158L635,183L685,184Z" fill="#3b87bd" stroke="#3b87bd" stroke-width="1.51"/><path d="M635,160L635,183L680,158Z" fill="#4591c2" stroke="#4591c2" stroke-width="1.51"/><path d="M621,4L617,32L678,7Z" fill="#b6a5aa" stroke="#b6a5aa" stroke-width="1.51"/><path d="M617,32L625,93L680,61Z" fill="#aec5d9" stroke="#aec5d9" stroke-width="1.51"/><path d="M-38,201L-76,203L34,203Z" fill="#793c5a" stroke="#793c5a" stroke-width="1.51"/><path d="M617,32L579,37L625,93Z" fill="#bbcbd7" stroke="#bbcbd7" stroke-width="1.51"/><path d="M625,93L574,158L635,160Z" fill="#7ab3d5" stroke="#7ab3d5" stroke-width="1.51"/><path d="M576,-46L621,4L638,-47Z" fill="#b18086" stroke="#b18086" stroke-width="1.51"/><path d="M574,158L572,180L635,183Z" fill="#5d9bc8" stroke="#5d9bc8" stroke-width="1.51"/><path d="M574,158L635,183L635,160Z" fill="#569ac7" stroke="#569ac7" stroke-width="1.51"/><path d="M576,-46L574,0L621,4Z" fill="#be9495" stroke="#be9495" stroke-width="1.51"/><path d="M579,37L564,84L625,93Z" fill="#bed7e7" stroke="#bed7e7" stroke-width="1.51"/><path d="M564,84L574,158L625,93Z" fill="#9fc9e1" stroke="#9fc9e1" stroke-width="1.51"/><path d="M574,0L579,37L617,32Z" fill="#c5baba" stroke="#c5baba" stroke-width="1.51"/><path d="M574,0L617,32L621,4Z" fill="#c1acac" stroke="#c1acac" stroke-width="1.51"/><path d="M375,194L332,203L467,208Z" fill="#8e9fc3" stroke="#8e9fc3" stroke-width="1.51"/><path d="M564,84L537,96L574,158Z" fill="#a8cfe4" stroke="#a8cfe4" stroke-width="1.51"/><path d="M537,96L519,142L574,158Z" fill="#99c7e0" stroke="#99c7e0" stroke-width="1.51"/><path d="M541,-12L574,0L576,-46Z" fill="#c49593" stroke="#c49593" stroke-width="1.51"/><path d="M509,46L564,84L579,37Z" fill="#ced9e0" stroke="#ced9e0" stroke-width="1.51"/><path d="M574,0L541,-12L579,37Z" fill="#cdb3ad" stroke="#cdb3ad" stroke-width="1.51"/><path d="M541,-12L509,46L579,37Z" fill="#d3c4c1" stroke="#d3c4c1" stroke-width="1.51"/><path d="M519,-52L541,-12L576,-46Z" fill="#c28989" stroke="#c28989" stroke-width="1.51"/><path d="M519,142L572,180L574,158Z" fill="#73aed2" stroke="#73aed2" stroke-width="1.51"/><path d="M519,142L522,199L572,180Z" fill="#73a6ce" stroke="#73a6ce" stroke-width="1.51"/><path d="M509,46L537,96L564,84Z" fill="#cce1ed" stroke="#cce1ed" stroke-width="1.51"/><path d="M519,142L489,158L522,199Z" fill="#80b0d4" stroke="#80b0d4" stroke-width="1.51"/><path d="M509,46L473,79L537,96Z" fill="#d7e7f0" stroke="#d7e7f0" stroke-width="1.51"/><path d="M519,-52L477,7L541,-12Z" fill="#d39e98" stroke="#d39e98" stroke-width="1.51"/><path d="M477,7L509,46L541,-12Z" fill="#ddc1b8" stroke="#ddc1b8" stroke-width="1.51"/><path d="M480,-48L477,7L519,-52Z" fill="#d39691" stroke="#d39691" stroke-width="1.51"/><path d="M473,79L519,142L537,96Z" fill="#c0dcea" stroke="#c0dcea" stroke-width="1.51"/><path d="M473,79L489,158L519,142Z" fill="#afd3e6" stroke="#afd3e6" stroke-width="1.51"/><path d="M489,158L467,208L522,199Z" fill="#7da1cd" stroke="#7da1cd" stroke-width="1.51"/><path d="M473,79L437,141L489,158Z" fill="#b8d8e9" stroke="#b8d8e9" stroke-width="1.51"/><path d="M477,7L471,56L509,46Z" fill="#e4dad4" stroke="#e4dad4" stroke-width="1.51"/><path d="M471,56L473,79L509,46Z" fill="#e2e7ea" stroke="#e2e7ea" stroke-width="1.51"/><path d="M440,-19L477,7L480,-48Z" fill="#dfa49b" stroke="#dfa49b" stroke-width="1.51"/><path d="M435,182L467,208L489,158Z" fill="#89aad1" stroke="#89aad1" stroke-width="1.51"/><path d="M437,141L435,182L489,158Z" fill="#95bddb" stroke="#95bddb" stroke-width="1.51"/><path d="M422,82L437,141L473,79Z" fill="#d7e7f1" stroke="#d7e7f1" stroke-width="1.51"/><path d="M422,31L471,56L477,7Z" fill="#ebd9d0" stroke="#ebd9d0" stroke-width="1.51"/><path d="M425,-51L440,-19L480,-48Z" fill="#d8938f" stroke="#d8938f" stroke-width="1.51"/><path d="M440,-19L422,31L477,7Z" fill="#ecc2b4" stroke="#ecc2b4" stroke-width="1.51"/><path d="M435,182L375,194L467,208Z" fill="#8ba3ca" stroke="#8ba3ca" stroke-width="1.51"/><path d="M471,56L422,82L473,79Z" fill="#e6eff4" stroke="#e6eff4" stroke-width="1.51"/><path d="M422,31L422,82L471,56Z" fill="#edeae9" stroke="#edeae9" stroke-width="1.51"/><path d="M115,191L74,197L221,200Z" fill="#9a6f84" stroke="#9a6f84" stroke-width="1.51"/><path d="M422,82L373,86L437,141Z" fill="#dbe9f2" stroke="#dbe9f2" stroke-width="1.51"/><path d="M373,86L372,156L437,141Z" fill="#c5deeb" stroke="#c5deeb" stroke-width="1.51"/><path d="M372,156L435,182L437,141Z" fill="#9ec1dc" stroke="#9ec1dc" stroke-width="1.51"/><path d="M425,-51L385,-8L440,-19Z" fill="#e4a298" stroke="#e4a298" stroke-width="1.51"/><path d="M385,-8L422,31L440,-19Z" fill="#efbfb0" stroke="#efbfb0" stroke-width="1.51"/><path d="M422,31L383,53L422,82Z" fill="#f3ede9" stroke="#f3ede9" stroke-width="1.51"/><path d="M372,156L375,194L435,182Z" fill="#9ab4d6" stroke="#9ab4d6" stroke-width="1.51"/><path d="M381,-54L385,-8L425,-51Z" fill="#e29991" stroke="#e29991" stroke-width="1.51"/><path d="M385,-8L383,53L422,31Z" fill="#f7d9cb" stroke="#f7d9cb" stroke-width="1.51"/><path d="M383,53L373,86L422,82Z" fill="#f2f5f6" stroke="#f2f5f6" stroke-width="1.51"/><path d="M330,105L372,156L373,86Z" fill="#d7e3eb" stroke="#d7e3eb" stroke-width="1.51"/><path d="M276,-69L320,-40L381,-54Z" fill="#d7867d" stroke="#d7867d" stroke-width="1.51"/><path d="M340,59L373,86L383,53Z" fill="#f8f3f0" stroke="#f8f3f0" stroke-width="1.51"/><path d="M381,-54L320,-40L385,-8Z" fill="#e79c91" stroke="#e79c91" stroke-width="1.51"/><path d="M320,-40L309,-12L385,-8Z" fill="#eea695" stroke="#eea695" stroke-width="1.51"/><path d="M340,59L383,53L385,-8Z" fill="#fbe2d6" stroke="#fbe2d6" stroke-width="1.51"/><path d="M309,-12L340,59L385,-8Z" fill="#facbb6" stroke="#facbb6" stroke-width="1.51"/><path d="M165,189L115,191L221,200Z" fill="#9f7c91" stroke="#9f7c91" stroke-width="1.51"/><path d="M161,-63L220,-56L276,-69Z" fill="#c5695c" stroke="#c5695c" stroke-width="1.51"/><path d="M312,158L332,203L372,156Z" fill="#a3b5cf" stroke="#a3b5cf" stroke-width="1.51"/><path d="M330,105L312,158L372,156Z" fill="#bfd1dd" stroke="#bfd1dd" stroke-width="1.51"/><path d="M372,156L332,203L375,194Z" fill="#9caed0" stroke="#9caed0" stroke-width="1.51"/><path d="M340,59L330,105L373,86Z" fill="#f1f0ef" stroke="#f1f0ef" stroke-width="1.51"/><path d="M276,181L221,200L332,203Z" fill="#9d99b4" stroke="#9d99b4" stroke-width="1.51"/><path d="M309,-12L285,33L340,59Z" fill="#fcd2be" stroke="#fcd2be" stroke-width="1.51"/><path d="M290,82L330,105L340,59Z" fill="#f2ece7" stroke="#f2ece7" stroke-width="1.51"/><path d="M285,33L290,82L340,59Z" fill="#fbe6db" stroke="#fbe6db" stroke-width="1.51"/><path d="M281,5L285,33L309,-12Z" fill="#f9bfa5" stroke="#f9bfa5" stroke-width="1.51"/><path d="M263,131L312,158L330,105Z" fill="#cad3d8" stroke="#cad3d8" stroke-width="1.51"/><path d="M290,82L263,131L330,105Z" fill="#e3e0de" stroke="#e3e0de" stroke-width="1.51"/><path d="M312,158L276,181L332,203Z" fill="#a3aac5" stroke="#a3aac5" stroke-width="1.51"/><path d="M276,-69L309,-12L320,-40Z" fill="#e38d7f" stroke="#e38d7f" stroke-width="1.51"/><path d="M276,-69L281,5L309,-12Z" fill="#eb9a86" stroke="#eb9a86" stroke-width="1.51"/><path d="M263,131L276,181L312,158Z" fill="#b1bbc9" stroke="#b1bbc9" stroke-width="1.51"/><path d="M220,-56L226,-9L276,-69Z" fill="#dd7b6a" stroke="#dd7b6a" stroke-width="1.51"/><path d="M276,-69L226,-9L281,5Z" fill="#e9947e" stroke="#e9947e" stroke-width="1.51"/><path d="M210,102L263,131L290,82Z" fill="#e6d7d1" stroke="#e6d7d1" stroke-width="1.51"/><path d="M285,33L233,29L290,82Z" fill="#fddbc8" stroke="#fddbc8" stroke-width="1.51"/><path d="M233,29L210,102L290,82Z" fill="#fbdfd2" stroke="#fbdfd2" stroke-width="1.51"/><path d="M263,131L233,154L276,181Z" fill="#b4b5c0" stroke="#b4b5c0" stroke-width="1.51"/><path d="M281,5L233,29L285,33Z" fill="#fbc6ac" stroke="#fbc6ac" stroke-width="1.51"/><path d="M226,-9L233,29L281,5Z" fill="#f7b495" stroke="#f7b495" stroke-width="1.51"/><path d="M233,154L221,200L276,181Z" fill="#a79eb2" stroke="#a79eb2" stroke-width="1.51"/><path d="M210,102L233,154L263,131Z" fill="#cfc5c3" stroke="#cfc5c3" stroke-width="1.51"/><path d="M173,82L210,102L233,29Z" fill="#fad4c3" stroke="#fad4c3" stroke-width="1.51"/><path d="M173,33L173,82L233,29Z" fill="#fac6ac" stroke="#fac6ac" stroke-width="1.51"/><path d="M226,-9L179,0L233,29Z" fill="#f4a888" stroke="#f4a888" stroke-width="1.51"/><path d="M179,0L173,33L233,29Z" fill="#f7b090" stroke="#f7b090" stroke-width="1.51"/><path d="M183,142L221,200L233,154Z" fill="#ada1ac" stroke="#ada1ac" stroke-width="1.51"/><path d="M210,102L183,142L233,154Z" fill="#cbbbb8" stroke="#cbbbb8" stroke-width="1.51"/><path d="M183,142L165,189L221,200Z" fill="#a8919f" stroke="#a8919f" stroke-width="1.51"/><path d="M220,-56L179,0L226,-9Z" fill="#e6876d" stroke="#e6876d" stroke-width="1.51"/><path d="M161,-63L179,0L220,-56Z" fill="#da705a" stroke="#da705a" stroke-width="1.51"/><path d="M173,82L183,142L210,102Z" fill="#e2c2b7" stroke="#e2c2b7" stroke-width="1.51"/><path d="M110,80L121,149L173,82Z" fill="#e1b2a8" stroke="#e1b2a8" stroke-width="1.51"/><path d="M161,-63L132,-41L179,0Z" fill="#d96a56" stroke="#d96a56" stroke-width="1.51"/><path d="M173,82L121,149L183,142Z" fill="#d1b0aa" stroke="#d1b0aa" stroke-width="1.51"/><path d="M121,149L165,189L183,142Z" fill="#ae949c" stroke="#ae949c" stroke-width="1.51"/><path d="M173,33L117,31L173,82Z" fill="#f6b8a0" stroke="#f6b8a0" stroke-width="1.51"/><path d="M117,31L110,80L173,82Z" fill="#f4b8a6" stroke="#f4b8a6" stroke-width="1.51"/><path d="M118,2L173,33L179,0Z" fill="#f09c7a" stroke="#f09c7a" stroke-width="1.51"/><path d="M132,-41L118,2L179,0Z" fill="#e27b60" stroke="#e27b60" stroke-width="1.51"/><path d="M118,2L117,31L173,33Z" fill="#ef9e80" stroke="#ef9e80" stroke-width="1.51"/><path d="M82,-70L132,-41L161,-63Z" fill="#bf4b43" stroke="#bf4b43" stroke-width="1.51"/><path d="M121,149L115,191L165,189Z" fill="#a47f8f" stroke="#a47f8f" stroke-width="1.51"/><path d="M110,80L77,102L121,149Z" fill="#d7a49d" stroke="#d7a49d" stroke-width="1.51"/><path d="M67,-12L118,2L132,-41Z" fill="#da6952" stroke="#da6952" stroke-width="1.51"/><path d="M82,-70L67,-12L132,-41Z" fill="#ca4c41" stroke="#ca4c41" stroke-width="1.51"/><path d="M63,150L74,197L115,191Z" fill="#9d6c80" stroke="#9d6c80" stroke-width="1.51"/><path d="M76,32L110,80L117,31Z" fill="#efa590" stroke="#efa590" stroke-width="1.51"/><path d="M76,32L117,31L118,2Z" fill="#eb9176" stroke="#eb9176" stroke-width="1.51"/><path d="M63,150L115,191L121,149Z" fill="#a67e89" stroke="#a67e89" stroke-width="1.51"/><path d="M77,102L63,150L121,149Z" fill="#c19292" stroke="#c19292" stroke-width="1.51"/><path d="M67,-12L76,32L118,2Z" fill="#e47e63" stroke="#e47e63" stroke-width="1.51"/><path d="M76,32L77,102L110,80Z" fill="#eeac9e" stroke="#eeac9e" stroke-width="1.51"/><path d="M63,150L30,161L74,197Z" fill="#9e6d7d" stroke="#9e6d7d" stroke-width="1.51"/><path d="M67,-12L34,4L76,32Z" fill="#df765e" stroke="#df765e" stroke-width="1.51"/><path d="M76,32L40,59L77,102Z" fill="#eba294" stroke="#eba294" stroke-width="1.51"/><path d="M27,-70L67,-12L82,-70Z" fill="#bc3535" stroke="#bc3535" stroke-width="1.51"/><path d="M30,161L34,203L74,197Z" fill="#955c75" stroke="#955c75" stroke-width="1.51"/><path d="M12,97L63,150L77,102Z" fill="#cb918f" stroke="#cb918f" stroke-width="1.51"/><path d="M40,59L12,97L77,102Z" fill="#df9a93" stroke="#df9a93" stroke-width="1.51"/><path d="M34,4L40,59L76,32Z" fill="#e48a75" stroke="#e48a75" stroke-width="1.51"/><path d="M12,97L30,161L63,150Z" fill="#b78186" stroke="#b78186" stroke-width="1.51"/><path d="M27,-70L34,4L67,-12Z" fill="#c94a40" stroke="#c94a40" stroke-width="1.51"/><path d="M27,-70L-20,-67L34,4Z" fill="#b92a30" stroke="#b92a30" stroke-width="1.51"/><path d="M-20,-67L-35,-4L34,4Z" fill="#c13d3a" stroke="#c13d3a" stroke-width="1.51"/><path d="M34,4L-29,56L40,59Z" fill="#e18777" stroke="#e18777" stroke-width="1.51"/><path d="M-29,56L12,97L40,59Z" fill="#e2948c" stroke="#e2948c" stroke-width="1.51"/><path d="M12,97L-39,131L30,161Z" fill="#b87d81" stroke="#b87d81" stroke-width="1.51"/><path d="M-35,-4L-29,56L34,4Z" fill="#d56d5c" stroke="#d56d5c" stroke-width="1.51"/><path d="M30,161L-38,201L34,203Z" fill="#8e516e" stroke="#8e516e" stroke-width="1.51"/><path d="M-15,95L-39,131L12,97Z" fill="#c68485" stroke="#c68485" stroke-width="1.51"/><path d="M-29,56L-15,95L12,97Z" fill="#d78c88" stroke="#d78c88" stroke-width="1.51"/><path d="M-39,131L-38,201L30,161Z" fill="#935e72" stroke="#935e72" stroke-width="1.51"/><path d="M-35,-4L-70,55L-29,56Z" fill="#cb776b" stroke="#cb776b" stroke-width="1.51"/><path d="M-79,-49L-35,-4L-20,-67Z" fill="#a7222d" stroke="#a7222d" stroke-width="1.51"/><path d="M-29,56L-82,98L-15,95Z" fill="#c98785" stroke="#c98785" stroke-width="1.51"/><path d="M-82,98L-39,131L-15,95Z" fill="#b77e82" stroke="#b77e82" stroke-width="1.51"/><path d="M-90,140L-76,203L-39,131Z" fill="#815a6f" stroke="#815a6f" stroke-width="1.51"/><path d="M-39,131L-76,203L-38,201Z" fill="#7e4e6a" stroke="#7e4e6a" stroke-width="1.51"/><path d="M-70,55L-82,98L-29,56Z" fill="#c68684" stroke="#c68684" stroke-width="1.51"/><path d="M-88,-14L-70,55L-35,-4Z" fill="#bc5e52" stroke="#bc5e52" stroke-width="1.51"/><path d="M-79,-49L-88,-14L-35,-4Z" fill="#a83435" stroke="#a83435" stroke-width="1.51"/><path d="M-82,98L-90,140L-39,131Z" fill="#a0727c" stroke="#a0727c" stroke-width="1.51"/><path d="M-88,-14L-82,98L-70,55Z" fill="#bd7872" stroke="#bd7872" stroke-width="1.51"/><path d="M-88,-14L-90,140L-82,98Z" fill="#b88183" stroke="#b88183" stroke-width="1.51"/></svg>